<?xml version="1.0" encoding="utf-8" ?><svg xmlns="http://www.w3.org/2000/svg" xmlns:xlink="http://www.w3.org/1999/xlink" width="512" height="512" viewBox="0 0 512 512"><path fill="white" d="M111.779 121.183L111.762 100.928C111.673 79.9924 115.887 81.1705 137 81.1728L439.523 81.1924C456.111 81.5 453.446 98.4019 453.447 109.731L453.426 411.342C453.411 428.77 436.991 427.142 425.656 427.131L124.213 427.14C106.098 425.231 112.708 399.427 111.779 387.071L78.2803 387.079C59.7111 387.076 58.7529 391.289 58.7313 373.061L58.73 342.381C58.7324 339.973 57.7954 333.443 60.213 331.87C61.5561 330.996 106.493 331.146 111.779 331.336L111.779 262.742L79.2181 262.757C74.9995 262.758 58.9569 264.832 58.8571 259.476C58.549 242.942 58.843 226.359 58.7018 209.818C58.6747 206.636 60.3876 206.474 63.0705 206.479C65.6122 205.006 91.4803 207.264 95.5102 205.677C90.7865 206.002 71.9673 207.237 69.8095 203.087C67.8219 199.263 71.5906 194.324 71.1607 190.085C70.9284 187.795 69.8087 185.986 70.2322 183.803C71.0198 179.416 76.8351 180.78 71.0866 179.334L70.9168 178.901L70.8212 178.935C71.3756 178.444 72.2062 178.522 73.0065 178.468C69.5699 178.441 61.5345 179.167 59.2977 177.354C57.4746 171.673 58.7427 133.761 58.7208 124.901C58.7098 120.502 63.1376 121.194 66.2326 121.165L111.779 121.183ZM219.423 161.753L277.339 161.747C286.49 161.746 297.238 161.473 306.246 161.753L306.246 139.99L219.423 139.99L219.423 161.753Z"/><path fill="#FBF6EF" d="M73.0065 178.468L111.779 178.468L111.779 206.479L79.2842 206.486C74.2601 206.487 68.0096 206.67 63.0705 206.479C65.6122 205.006 91.4803 207.264 95.5102 205.677C90.7865 206.002 71.9673 207.237 69.8095 203.087C67.8219 199.263 71.5906 194.324 71.1607 190.085C70.9284 187.795 69.8087 185.986 70.2322 183.803C71.0198 179.416 76.8351 180.78 71.0866 179.334L70.9168 178.901L70.8212 178.935C71.3756 178.444 72.2062 178.522 73.0065 178.468Z"/><path fill="#FBF6EF" d="M118.73 121.183L118.707 101.607C118.687 89.2575 117.609 88.1786 130.159 88.2062L144.311 88.2436C169.197 87.9052 195.004 88.2477 219.952 88.2476L372.562 88.2436L430.415 88.2273C450.266 88.2381 446.561 90.9599 446.509 108.793L446.484 410.618C446.395 423.089 433.602 420.297 424.867 420.296L125.287 420.315C117.458 420.329 118.709 409.733 118.711 404.636L118.73 387.071L185.287 387.068C195.928 387.068 207.888 387.368 218.377 387.071L219.082 386.627C219.775 385.229 219.43 368.004 219.423 364.948L270.303 364.937C285.422 365.069 286.284 357.735 271.213 357.736L219.423 357.749C219.43 354.074 219.83 334.348 218.84 332.422C216.399 330.326 208.907 331.318 205.733 331.321L118.73 331.336L118.73 262.742L204.135 262.75C206.541 262.75 216.586 263.52 218.401 261.942C220.146 260.425 219.428 239.948 219.423 236.45L282.811 236.447C291.65 236.447 300.533 236.435 309.372 236.628C310.934 236.8 320.585 229.406 299.868 229.496L219.423 229.514C219.432 226.347 220.147 209.54 218.379 207.737C216.061 205.373 207.97 206.468 204.827 206.471L118.73 206.479L118.73 178.468L214.373 178.545C217.5 178.571 218.467 178.074 219.423 175.046C219.321 172.719 219.316 171.071 219.423 168.746L223.85 168.746C234.911 168.904 246.405 168.75 257.494 168.75L361.428 168.751C367.981 168.75 374.544 168.8 381.076 168.661C391.806 168.433 388.968 156.112 389.001 148.01C389.081 128.482 382.919 132.983 366.07 132.996L219.423 133.003C219.167 129.897 219.98 123.883 218.455 121.887C216.227 120.745 191.711 121.171 187.53 121.171L133.124 121.185C129.47 121.187 122.29 121.449 118.976 121.203L118.73 121.183Z"/><path fill="#EAD7C3" d="M372.562 88.2436L430.415 88.2273C450.266 88.2381 446.561 90.9599 446.509 108.793L446.484 410.618C446.395 423.089 433.602 420.297 424.867 420.296L125.287 420.315C117.458 420.329 118.709 409.733 118.711 404.636L118.73 387.071L185.287 387.068C195.928 387.068 207.888 387.368 218.377 387.071C219.876 388.849 231.803 388.202 234.803 388.202L393.941 388.127C400.166 388.085 406.464 386.941 408.56 380.076C413.183 379.49 417.722 380.538 421.018 377.146C424.382 374.091 423.073 359.753 423.049 355.176C422.984 342.796 421.625 342.593 408.56 342.785L408.56 236.45C426.374 236.569 426.163 235.12 425.677 217.473C425.546 212.716 427.541 199.747 419.892 199.394C400.63 198.506 380.943 199.987 361.963 199.071C363.775 198.81 373.361 199.076 375.82 199.081L408.56 199.071L408.657 103C408.634 98.1708 408.365 93.0332 408.56 88.2436L381.698 88.2509C380.496 88.2548 373.082 88.5384 372.562 88.2436Z"/><path fill="white" d="M408.56 380.076L363.632 380.074C356.333 380.079 348.722 380.39 341.51 379.719C333.257 378.95 335.925 359.768 335.735 353.733C335.369 342.071 340.468 342.716 349.538 342.758L408.56 342.785C421.625 342.593 422.984 342.796 423.049 355.176C423.073 359.753 424.382 374.091 421.018 377.146C417.722 380.538 413.183 379.49 408.56 380.076Z"/><path fill="#EAD7C3" d="M342.78 349.741L416.015 349.741C415.997 357.406 416.173 365.372 416.015 373.004L342.78 373.004L342.78 349.741Z"/><path fill="white" d="M408.56 236.45L367.993 236.445C360.103 236.45 341.19 239.765 341.475 228.186C341.657 220.787 341.14 213.068 341.698 205.727C342.373 196.86 355.215 199.11 361.963 199.071C380.943 199.987 400.63 198.506 419.892 199.394C427.541 199.747 425.546 212.716 425.677 217.473C426.163 235.12 426.374 236.569 408.56 236.45Z"/><path fill="#EAD7C3" d="M348.509 206.479L395.28 206.478C402.846 206.477 410.987 206.307 418.505 206.479C418.834 212.976 418.514 222.256 418.505 229.023L348.509 229.023L348.509 206.479Z"/><path fill="#FBF6EF" d="M118.73 121.183L118.707 101.607C118.687 89.2575 117.609 88.1786 130.159 88.2062L144.311 88.2436C141.183 88.9638 136.861 87.8119 133.183 88.6339C130.94 92.1796 123.853 88.436 121.248 92.999C118.192 98.3499 118.383 114.346 119.157 120.03C119.339 121.364 133.703 120.517 135.737 120.771C130.78 121.897 122.563 120.525 118.73 121.183Z"/><path fill="#FBF6EF" d="M219.423 168.746L223.85 168.746C228.083 169.793 223.685 169.104 219.423 172.304L219.506 172.196C219.668 173.456 219.744 173.809 219.423 175.046C219.321 172.719 219.316 171.071 219.423 168.746Z"/><path fill="white" d="M220.761 278.516L360.135 278.503C368.695 278.503 384.206 275.107 384.163 286.806C384.128 296.368 388.24 315.237 375.558 315.366L237.782 315.376C231.992 315.377 226.201 315.438 220.398 315.293C208.976 314.893 211.793 300.72 211.487 293.276C211.183 285.906 212.065 279.748 220.761 278.516Z"/><path fill="#FBF6EF" d="M238.756 285.67L295.761 285.67L295.761 308.278L275.375 308.278L240.228 308.291C237.249 308.291 220.744 308.666 218.918 307.652C217.598 304.216 218.305 291.806 218.521 287.915C218.732 284.102 235.534 285.663 238.756 285.67Z"/><path fill="#EAD7C3" d="M302.753 285.67L377.031 285.67L377.031 308.278L302.753 308.278L302.753 285.67Z"/><path fill="#DCDAD1" d="M65.6697 128.239L212.458 128.239C212.612 129.244 212.468 138.898 212.467 140.589L212.458 171.512L65.6697 171.512L65.6956 141.517C65.694 138.54 65.381 130.815 65.6697 128.239Z"/><path fill="#EAD7C3" d="M65.6697 128.239L212.458 128.239C212.313 129.171 212.411 132.434 212.419 133.509L212.458 143.914L81.3223 143.914C76.1395 143.912 70.8214 143.77 65.6697 143.914C65.6479 139.025 65.9221 132.977 65.6697 128.239Z"/><path fill="#DCDAD1" d="M65.6697 213.731L194.421 213.739C197.083 213.738 211.168 213.385 212.322 214.166L212.458 214.95C212.619 219.484 212.469 224.651 212.465 229.235L212.458 255.807L65.6697 255.807L65.6495 238.218C65.647 235.879 65.5083 231.737 65.6697 229.514L65.6697 213.731Z"/><path fill="#EAD7C3" d="M65.6697 213.731L194.421 213.739C197.083 213.738 211.168 213.385 212.322 214.166L212.458 214.95C212.134 218.309 212.484 225.746 212.458 229.514L79.6361 229.523C76.7459 229.527 67.9154 229.783 65.6697 229.514L65.6697 213.731Z"/><path fill="#DCDAD1" d="M65.6697 338.328L212.458 338.328L212.458 353.346L212.458 380.076L81.9849 380.085C77.0514 380.087 70.4554 380.291 65.6697 380.076L65.6697 353.346L65.6697 338.328Z"/><path fill="#EAD7C3" d="M65.6697 338.328L212.458 338.328L212.458 353.346L65.6697 353.346L65.6697 338.328Z"/><path fill="#EAD7C3" d="M313.349 139.99L381.862 139.99L381.862 161.753L313.349 161.753C313.144 154.87 313.344 146.956 313.349 139.99Z"/></svg>